<svg xmlns="http://www.w3.org/2000/svg" width="33" height="37" fill="none"><path fill="url(#a)" d="m13.832 26.753 3.433 1.985 13.428-7.754a2.813 2.813 0 0 0 1.427-2.29 2.859 2.859 0 0 0-.707-2.088L13.832 26.756v-.004Z"/><path fill="url(#b)" d="M3.742 36.108c.19 0 .378-.017.563-.058V15.746L.871 17.73v15.507c0 1.773 1.49 2.871 2.871 2.871Z"/><path fill="url(#c)" d="M5.893 23.999v11.304l9.788-5.652-9.788-5.652Z"/><path fill="url(#d)" d="M20.186 9.95v11.304l9.787-5.652-9.787-5.652Z"/><path fill="url(#e)" d="M.871 4.6v11.299l9.788-5.652L.871 4.599Z"/><path fill="url(#f)" d="M3.743.891c-1.238 0-2.34.81-2.728 1.958l17.582 10.152V9.036L5.169 1.283A2.837 2.837 0 0 0 3.743.891Z"/><path fill="url(#g)" d="m18.597 14.832-6.35-3.667-6.354 3.668v7.335l6.355 3.667 6.349-3.668v-7.335Z"/><defs><linearGradient id="a" x1=".709" x2="23.155" y1="3.996" y2="22.109" gradientUnits="userSpaceOnUse"><stop stop-color="#9557E8"/><stop offset=".4" stop-color="#4657E5"/><stop offset="1" stop-color="#13DBF5"/></linearGradient><linearGradient id="b" x1="-8.88" x2="13.584" y1="15.926" y2="34.047" gradientUnits="userSpaceOnUse"><stop stop-color="#9557E8"/><stop offset=".4" stop-color="#4657E5"/><stop offset="1" stop-color="#13DBF5"/></linearGradient><linearGradient id="c" x1="-9.335" x2="13.238" y1="16.245" y2="34.453" gradientUnits="userSpaceOnUse"><stop stop-color="#9557E8"/><stop offset=".4" stop-color="#4657E5"/><stop offset="1" stop-color="#13DBF5"/></linearGradient><linearGradient id="d" x1="3.229" x2="25.802" y1=".801" y2="19.013" gradientUnits="userSpaceOnUse"><stop stop-color="#9557E8"/><stop offset=".4" stop-color="#4657E5"/><stop offset="1" stop-color="#13DBF5"/></linearGradient><linearGradient id="e" x1="-1.685" x2="20.887" y1="7.065" y2="25.273" gradientUnits="userSpaceOnUse"><stop stop-color="#9557E8"/><stop offset=".4" stop-color="#4657E5"/><stop offset="1" stop-color="#13DBF5"/></linearGradient><linearGradient id="f" x1="3.454" x2="25.927" y1=".815" y2="18.95" gradientUnits="userSpaceOnUse"><stop stop-color="#9557E8"/><stop offset=".4" stop-color="#4657E5"/><stop offset="1" stop-color="#13DBF5"/></linearGradient><linearGradient id="g" x1="-1.725" x2="20.636" y1="7.228" y2="25.268" gradientUnits="userSpaceOnUse"><stop stop-color="#9557E8"/><stop offset=".4" stop-color="#4657E5"/><stop offset="1" stop-color="#13DBF5"/></linearGradient></defs></svg>